<svg width="236" height="66" viewBox="0 0 236 66" fill="none" xmlns="http://www.w3.org/2000/svg">
<path d="M76.1221 53H93.2119C102.196 53 106.981 48.3125 106.981 41.9453C106.981 36.0273 102.743 32.4531 98.1924 32.2383V31.8477C102.353 30.9102 105.419 27.9609 105.419 23.2539C105.419 17.2578 100.966 13 92.1377 13H76.1221V53ZM84.5791 46.0859V35.4609H91.6689C95.7314 35.4609 98.251 37.8047 98.251 41.1055C98.251 44.1133 96.2002 46.0859 91.4736 46.0859H84.5791ZM84.5791 29.7383V19.8359H91.0049C94.7549 19.8359 96.8838 21.7695 96.8838 24.6602C96.8838 27.8242 94.3057 29.7383 90.8486 29.7383H84.5791ZM125.98 53.5859C135.082 53.5859 140.746 47.3555 140.746 38.1172C140.746 28.8203 135.082 22.6094 125.98 22.6094C116.859 22.6094 111.215 28.8203 111.215 38.1172C111.215 47.3555 116.859 53.5859 125.98 53.5859ZM126.02 47.1406C121.82 47.1406 119.672 43.293 119.672 38.0586C119.672 32.8242 121.82 28.957 126.02 28.957C130.141 28.957 132.289 32.8242 132.289 38.0586C132.289 43.293 130.141 47.1406 126.02 47.1406ZM159.926 53.5859C169.027 53.5859 174.691 47.3555 174.691 38.1172C174.691 28.8203 169.027 22.6094 159.926 22.6094C150.805 22.6094 145.16 28.8203 145.16 38.1172C145.16 47.3555 150.805 53.5859 159.926 53.5859ZM159.965 47.1406C155.766 47.1406 153.617 43.293 153.617 38.0586C153.617 32.8242 155.766 28.957 159.965 28.957C164.086 28.957 166.234 32.8242 166.234 38.0586C166.234 43.293 164.086 47.1406 159.965 47.1406ZM180.219 53H188.539V43.4688L190.785 40.9102L198.969 53H208.715L197.016 35.9883L208.148 23H198.598L188.988 34.3867H188.539V13H180.219V53ZM212.23 53H220.551V36.0273C220.57 32.3555 223.227 29.8359 226.586 29.8359C227.719 29.8359 228.637 30.1484 229.418 30.5391L231.918 23.6641C230.824 23 229.418 22.5703 227.816 22.5703C224.438 22.5703 221.703 24.5234 220.609 28.2344H220.297V23H212.23V53Z" fill="white"/>
<path fill-rule="evenodd" clip-rule="evenodd" d="M2.32422 13.9488C2.32422 12.6652 3.36477 11.6247 4.64837 11.6247H18.5932C21.6753 11.6247 24.631 12.849 26.8103 15.0283C28.9897 17.2076 30.214 20.1634 30.214 23.2454V55.7835C30.214 57.0671 29.1734 58.1076 27.8898 58.1076C26.6062 58.1076 25.5657 57.0671 25.5657 55.7835C25.5657 54.5507 25.076 53.3684 24.2042 52.4966C23.3325 51.6249 22.1502 51.1352 20.9174 51.1352H4.64837C3.36477 51.1352 2.32422 50.0946 2.32422 48.811V13.9488ZM25.5657 47.7324V23.2454C25.5657 21.3962 24.8311 19.6227 23.5235 18.3152C22.2159 17.0076 20.4425 16.273 18.5932 16.273H6.97251V46.4869H20.9174C22.5634 46.4869 24.1644 46.9234 25.5657 47.7324Z" fill="white"/>
<path fill-rule="evenodd" clip-rule="evenodd" d="M28.9693 15.0283C31.1486 12.849 34.1044 11.6247 37.1864 11.6247H51.1313C52.4149 11.6247 53.4555 12.6652 53.4555 13.9488V48.811C53.4555 50.0946 52.4149 51.1352 51.1313 51.1352H34.8623C33.6295 51.1352 32.4472 51.6249 31.5754 52.4966C30.7037 53.3684 30.214 54.5507 30.214 55.7835C30.214 57.0671 29.1734 58.1076 27.8898 58.1076C26.6062 58.1076 25.5657 57.0671 25.5657 55.7835V23.2454C25.5657 20.1634 26.79 17.2076 28.9693 15.0283ZM30.214 47.7324C31.6152 46.9234 33.2162 46.4869 34.8623 46.4869H48.8072V16.273H37.1864C35.3372 16.273 33.5637 17.0076 32.2562 18.3152C30.9486 19.6227 30.214 21.3962 30.214 23.2454V47.7324Z" fill="white"/>
<path d="M30.214 23.2454C30.214 20.1634 28.9897 17.2076 26.8103 15.0283C24.631 12.849 21.6753 11.6247 18.5932 11.6247H4.64837C3.36477 11.6247 2.32422 12.6652 2.32422 13.9488V48.811C2.32422 50.0946 3.36477 51.1352 4.64837 51.1352H20.9174C22.1502 51.1352 23.3325 51.6249 24.2042 52.4966C25.076 53.3684 25.5657 54.5507 25.5657 55.7835M30.214 23.2454V55.7835M30.214 23.2454C30.214 21.3962 30.9486 19.6227 32.2562 18.3152C33.5637 17.0076 35.3372 16.273 37.1864 16.273H48.8072V46.4869H34.8623C33.2162 46.4869 31.6152 46.9234 30.214 47.7324V23.2454ZM30.214 55.7835C30.214 57.0671 29.1734 58.1076 27.8898 58.1076C26.6062 58.1076 25.5657 57.0671 25.5657 55.7835M30.214 55.7835C30.214 54.5507 30.7037 53.3684 31.5754 52.4966C32.4472 51.6249 33.6295 51.1352 34.8623 51.1352H51.1313C52.4149 51.1352 53.4555 50.0946 53.4555 48.811V13.9488C53.4555 12.6652 52.4149 11.6247 51.1313 11.6247H37.1864C34.1044 11.6247 31.1486 12.849 28.9693 15.0283C26.79 17.2076 25.5657 20.1634 25.5657 23.2454M25.5657 55.7835V23.2454M25.5657 23.2454V47.7324C24.1644 46.9234 22.5634 46.4869 20.9174 46.4869H6.97251V16.273H18.5932C20.4425 16.273 22.2159 17.0076 23.5235 18.3152C24.8311 19.6227 25.5657 21.3962 25.5657 23.2454Z" stroke="white" stroke-linecap="round" stroke-linejoin="round"/>
</svg>
