<svg width="127" height="33" viewBox="0 0 127 33" fill="none" xmlns="http://www.w3.org/2000/svg">
<path d="M46.7699 27H55.4702C60.044 27 62.4801 24.6136 62.4801 21.3722C62.4801 18.3594 60.3224 16.5398 58.0057 16.4304V16.2315C60.1236 15.7543 61.6847 14.2528 61.6847 11.8565C61.6847 8.80398 59.4176 6.63636 54.9233 6.63636H46.7699V27ZM51.0753 23.4801V18.071H54.6847C56.7528 18.071 58.0355 19.2642 58.0355 20.9446C58.0355 22.4759 56.9915 23.4801 54.5852 23.4801H51.0753ZM51.0753 15.1577V10.1165H54.3466C56.2557 10.1165 57.3395 11.1009 57.3395 12.5724C57.3395 14.1832 56.027 15.1577 54.267 15.1577H51.0753ZM72.1523 27.2983C76.7859 27.2983 79.6694 24.1264 79.6694 19.4233C79.6694 14.6903 76.7859 11.5284 72.1523 11.5284C67.5089 11.5284 64.6353 14.6903 64.6353 19.4233C64.6353 24.1264 67.5089 27.2983 72.1523 27.2983ZM72.1722 24.017C70.0344 24.017 68.9407 22.0582 68.9407 19.3935C68.9407 16.7287 70.0344 14.7599 72.1722 14.7599C74.2702 14.7599 75.364 16.7287 75.364 19.3935C75.364 22.0582 74.2702 24.017 72.1722 24.017ZM89.4336 27.2983C94.0671 27.2983 96.9506 24.1264 96.9506 19.4233C96.9506 14.6903 94.0671 11.5284 89.4336 11.5284C84.7901 11.5284 81.9165 14.6903 81.9165 19.4233C81.9165 24.1264 84.7901 27.2983 89.4336 27.2983ZM89.4535 24.017C87.3157 24.017 86.2219 22.0582 86.2219 19.3935C86.2219 16.7287 87.3157 14.7599 89.4535 14.7599C91.5515 14.7599 92.6452 16.7287 92.6452 19.3935C92.6452 22.0582 91.5515 24.017 89.4535 24.017ZM99.7646 27H104V22.1477L105.144 20.8452L109.31 27H114.272L108.316 18.3395L113.983 11.7273H109.121L104.229 17.5241H104V6.63636H99.7646V27ZM116.061 27H120.297V18.3594C120.307 16.4901 121.659 15.2074 123.37 15.2074C123.946 15.2074 124.414 15.3665 124.811 15.5653L126.084 12.0653C125.527 11.7273 124.811 11.5085 123.996 11.5085C122.276 11.5085 120.884 12.5028 120.327 14.392H120.168V11.7273H116.061V27Z" fill="#2B292D"/>
<path fill-rule="evenodd" clip-rule="evenodd" d="M1.16669 6.50001C1.16669 5.85568 1.68902 5.33334 2.33335 5.33334H9.33335C10.8804 5.33334 12.3642 5.94792 13.4581 7.04189C14.5521 8.13585 15.1667 9.61958 15.1667 11.1667V27.5C15.1667 28.1443 14.6444 28.6667 14 28.6667C13.3557 28.6667 12.8334 28.1443 12.8334 27.5C12.8334 26.8812 12.5875 26.2877 12.1499 25.8501C11.7124 25.4125 11.1189 25.1667 10.5 25.1667H2.33335C1.68902 25.1667 1.16669 24.6443 1.16669 24V6.50001ZM12.8334 23.4585V11.1667C12.8334 10.2384 12.4646 9.34818 11.8082 8.6918C11.1519 8.03543 10.2616 7.66668 9.33335 7.66668H3.50002V22.8333H10.5C11.3263 22.8333 12.13 23.0525 12.8334 23.4585Z" fill="#2B292D"/>
<path fill-rule="evenodd" clip-rule="evenodd" d="M14.5419 7.04189C15.6359 5.94792 17.1196 5.33334 18.6667 5.33334H25.6667C26.311 5.33334 26.8334 5.85568 26.8334 6.50001V24C26.8334 24.6443 26.311 25.1667 25.6667 25.1667H17.5C16.8812 25.1667 16.2877 25.4125 15.8501 25.8501C15.4125 26.2877 15.1667 26.8812 15.1667 27.5C15.1667 28.1443 14.6444 28.6667 14 28.6667C13.3557 28.6667 12.8334 28.1443 12.8334 27.5V11.1667C12.8334 9.61958 13.4479 8.13585 14.5419 7.04189ZM15.1667 23.4585C15.8701 23.0525 16.6738 22.8333 17.5 22.8333H24.5V7.66668H18.6667C17.7384 7.66668 16.8482 8.03543 16.1918 8.6918C15.5354 9.34818 15.1667 10.2384 15.1667 11.1667V23.4585Z" fill="#2B292D"/>
<path d="M15.1667 11.1667C15.1667 9.61958 14.5521 8.13585 13.4581 7.04189C12.3642 5.94792 10.8804 5.33334 9.33335 5.33334H2.33335C1.68902 5.33334 1.16669 5.85568 1.16669 6.50001V24C1.16669 24.6443 1.68902 25.1667 2.33335 25.1667H10.5C11.1189 25.1667 11.7124 25.4125 12.1499 25.8501C12.5875 26.2877 12.8334 26.8812 12.8334 27.5M15.1667 11.1667V27.5M15.1667 11.1667C15.1667 10.2384 15.5354 9.34818 16.1918 8.6918C16.8482 8.03543 17.7384 7.66668 18.6667 7.66668H24.5V22.8333H17.5C16.6738 22.8333 15.8701 23.0525 15.1667 23.4585V11.1667ZM15.1667 27.5C15.1667 28.1443 14.6444 28.6667 14 28.6667C13.3557 28.6667 12.8334 28.1443 12.8334 27.5M15.1667 27.5C15.1667 26.8812 15.4125 26.2877 15.8501 25.8501C16.2877 25.4125 16.8812 25.1667 17.5 25.1667H25.6667C26.311 25.1667 26.8334 24.6443 26.8334 24V6.50001C26.8334 5.85568 26.311 5.33334 25.6667 5.33334H18.6667C17.1196 5.33334 15.6359 5.94792 14.5419 7.04189C13.4479 8.13585 12.8334 9.61958 12.8334 11.1667M12.8334 27.5V11.1667M12.8334 11.1667V23.4585C12.13 23.0525 11.3263 22.8333 10.5 22.8333H3.50002V7.66668H9.33335C10.2616 7.66668 11.1519 8.03543 11.8082 8.6918C12.4646 9.34818 12.8334 10.2384 12.8334 11.1667Z" stroke="#2B292D" stroke-linecap="round" stroke-linejoin="round"/>
</svg>
